<?xml version="1.0" encoding="UTF-8" standalone="no"?>
<svg
   width="25"
   height="25"
   viewBox="0 0 41 41"
   version="1.1"
   id="svg7"
   sodipodi:docname="mouse-pointer-heart-small.svg"
   inkscape:version="1.2.2 (b0a84865, 2022-12-01)"
   xmlns:inkscape="http://www.inkscape.org/namespaces/inkscape"
   xmlns:sodipodi="http://sodipodi.sourceforge.net/DTD/sodipodi-0.dtd"
   xmlns="http://www.w3.org/2000/svg"
   xmlns:svg="http://www.w3.org/2000/svg">
  <defs
     id="defs11" />
  <sodipodi:namedview
     id="namedview9"
     pagecolor="#ffffff"
     bordercolor="#000000"
     borderopacity="0.25"
     inkscape:showpageshadow="2"
     inkscape:pageopacity="0.0"
     inkscape:pagecheckerboard="0"
     inkscape:deskcolor="#ffffff"
     showgrid="false"
     inkscape:zoom="10.071189"
     inkscape:cx="33.064617"
     inkscape:cy="23.284242"
     inkscape:window-width="1470"
     inkscape:window-height="891"
     inkscape:window-x="0"
     inkscape:window-y="37"
     inkscape:window-maximized="1"
     inkscape:current-layer="Icon_feather-smile" />
  <g
     id="Icon_feather-smile"
     data-name="Icon feather-smile"
     transform="translate(-1.5 -1.5)">
    <path
       id="Pfad_40"
       data-name="Pfad 40"
       d="M22,1.5a20.505,20.505,0,0,1,7.98,39.388A20.5,20.5,0,0,1,14.02,3.112,20.373,20.373,0,0,1,22,1.5Zm0,38A17.5,17.5,0,0,0,34.374,9.626,17.5,17.5,0,1,0,9.626,34.374,17.385,17.385,0,0,0,22,39.5Z"
       fill="#824949" />
    <path
       id="Pfad_41"
       data-name="Pfad 41"
       d="M19.6,26.3a11.739,11.739,0,0,1-8.8-4.4l2.4-1.8,0-.005a9.065,9.065,0,0,0,1.781,1.647,7.644,7.644,0,0,0,9.322-.054A8.9,8.9,0,0,0,26,20.1l.9-1.2,2.4,1.8-.9,1.2A11.739,11.739,0,0,1,19.6,26.3Z"
       transform="translate(2.4 5.8)"
       fill="#824949" />
  </g>
  <path
     d="m 17.606883,9.6520544 c -0.887654,-0.08454 -1.70486,0.239526 -2.28254,0.8172056 l -0.422692,0.422693 c -0.225437,0.225436 -0.59177,0.225436 -0.817206,0 L 13.661752,10.46926 C 13.084072,9.8915804 12.266866,9.5675164 11.379212,9.6520544 10.054775,9.7788624 8.9980434,10.849684 8.8571454,12.17412 c -0.08454,0.887655 0.239527,1.704861 0.817206,2.282541 l 4.1423876,4.311465 c 0.366334,0.366333 0.958103,0.366333 1.324437,0 l 4.142388,-4.311465 c 0.57768,-0.57768 0.901744,-1.394886 0.817206,-2.282541 -0.09863,-1.338526 -1.16945,-2.3952576 -2.493887,-2.5220656 z"
     id="path1036"
     style="stroke-width:0.140898;fill:#824949;fill-opacity:1" />
  <path
     d="m 30.645257,9.6520545 c -0.887654,-0.08454 -1.70486,0.239526 -2.28254,0.8172055 l -0.422692,0.422693 c -0.225437,0.225436 -0.59177,0.225436 -0.817206,0 L 26.700126,10.46926 C 26.122446,9.8915805 25.30524,9.5675165 24.417586,9.6520545 23.09315,9.7788625 22.036418,10.849684 21.89552,12.17412 c -0.08454,0.887655 0.239527,1.704861 0.817206,2.282541 l 4.142387,4.311465 c 0.366334,0.366333 0.958103,0.366333 1.324437,0 l 4.142388,-4.311465 c 0.57768,-0.57768 0.901744,-1.394886 0.817206,-2.282541 -0.09863,-1.338526 -1.16945,-2.3952575 -2.493887,-2.5220655 z"
     id="path1038"
     style="stroke-width:0.140898;fill:#824949;fill-opacity:1" />
</svg>
