<?xml version="1.0" encoding="UTF-8" standalone="no"?>
<svg
   width="20"
   height="20"
   viewBox="0 0 41 41"
   version="1.1"
   id="svg7"
   sodipodi:docname="mouse-pointer-link.svg"
   inkscape:version="1.2.2 (b0a84865, 2022-12-01)"
   xmlns:inkscape="http://www.inkscape.org/namespaces/inkscape"
   xmlns:sodipodi="http://sodipodi.sourceforge.net/DTD/sodipodi-0.dtd"
   xmlns="http://www.w3.org/2000/svg"
   xmlns:svg="http://www.w3.org/2000/svg">
  <defs
     id="defs11" />
  <sodipodi:namedview
     id="namedview9"
     pagecolor="#ffffff"
     bordercolor="#000000"
     borderopacity="0.25"
     inkscape:showpageshadow="2"
     inkscape:pageopacity="0.0"
     inkscape:pagecheckerboard="0"
     inkscape:deskcolor="#d1d1d1"
     showgrid="false"
     inkscape:zoom="10.61514"
     inkscape:cx="14.837299"
     inkscape:cy="20.960629"
     inkscape:window-width="1470"
     inkscape:window-height="891"
     inkscape:window-x="0"
     inkscape:window-y="37"
     inkscape:window-maximized="1"
     inkscape:current-layer="svg7" />
  <g
     id="Icon_feather-smile"
     data-name="Icon feather-smile"
     transform="translate(-1.5 -1.5)">
    <path
       id="Pfad_40"
       data-name="Pfad 40"
       d="M22,1.5a20.505,20.505,0,0,1,7.98,39.388A20.5,20.5,0,0,1,14.02,3.112,20.373,20.373,0,0,1,22,1.5Zm0,38A17.5,17.5,0,0,0,34.374,9.626,17.5,17.5,0,1,0,9.626,34.374,17.385,17.385,0,0,0,22,39.5Z"
       fill="#824949" />
    <path
       id="Pfad_41"
       data-name="Pfad 41"
       d="M19.6,26.3a11.739,11.739,0,0,1-8.8-4.4l2.4-1.8,0-.005a9.065,9.065,0,0,0,1.781,1.647,7.644,7.644,0,0,0,9.322-.054A8.9,8.9,0,0,0,26,20.1l.9-1.2,2.4,1.8-.9,1.2A11.739,11.739,0,0,1,19.6,26.3Z"
       transform="translate(2.4 5.8)"
       fill="#824949" />
    <path
       id="Pfad_43"
       data-name="Pfad 43"
       d="M28.72,15H21V12H28.72Z"
       transform="translate(40.564 -8.334) rotate(90)"
       fill="#824949" />
    <path
       id="Pfad_47"
       data-name="Pfad 47"
       d="M28.72,15H21V12H28.72Z"
       transform="translate(30.564 -8.334) rotate(90)"
       fill="#824949" />
  </g>
  <circle
     style="fill:#824949;fill-opacity:1"
     id="path223"
     cx="15.167018"
     cy="-14.978607"
     r="4.7102537"
     transform="scale(1,-1)" />
  <circle
     style="fill:#824949;fill-opacity:1"
     id="circle933"
     cx="26.775936"
     cy="-14.978606"
     r="4.7102537"
     transform="scale(1,-1)" />
</svg>
